Coordinates
version=1
nRows=26
nColumns=22
inDegrees=yes

Units are S.I. units (second, meters, Newtons, ...)
If the header above contains a line with 'inDegrees', this indicates whether rotational values are in degrees (yes) or radians (no).

endheader
time	pelvis_tilt	pelvis_list	pelvis_rotation	pelvis_tx	pelvis_ty	pelvis_tz	hip_flexion_r	hip_adduction_r	hip_rotation_r	knee_angle_r	ankle_angle_r	subtalar_angle_r	hip_flexion_l	hip_adduction_l	hip_rotation_l	knee_angle_l	ankle_angle_l	subtalar_angle_l	lumbar_extension	lumbar_bending	lumbar_rotation
      1.99000000	      7.60817498	      2.34737351	     -2.73138253	      0.43417006	      0.91647376	      0.08797904	    -17.59737739	     -1.19553429	      0.29466257	    -41.60643119	    -13.88649238	     14.61099530	     17.05323422	      5.51734969	     -7.63844986	    -30.95775619	     13.54828042	    -18.01886624	    -10.18903252	     -2.51282826	     -0.14503682
      2.00000000	      7.81050808	      2.75444427	     -2.93891101	      0.44580158	      0.91822283	      0.08734101	    -15.77186147	     -2.14522419	     -0.25388931	    -44.80044056	    -13.74609467	     14.91645860	     15.80983885	      6.00915960	     -8.02744123	    -30.54100198	     14.21352076	    -17.99086654	    -10.42817428	     -2.86272330	     -0.47173152
      2.01000000	      7.99108675	      3.14998351	     -3.10275212	      0.45712361	      0.91990157	      0.08661357	    -13.85934956	     -3.09499111	     -0.78219287	    -47.83959369	    -13.11479622	     15.07988831	     14.57297477	      6.51303469	     -8.36439445	    -30.03980501	     14.79330091	    -17.95338953	    -10.67818046	     -3.17796290	     -0.87840184
      2.02000000	      8.14191723	      3.51486157	     -3.20342199	      0.46816850	      0.92153332	      0.08578467	    -11.88381185	     -4.00163616	     -1.27247011	    -50.66023652	    -12.10986639	     15.04833916	     13.34950762	      7.01810737	     -8.58474813	    -29.45830413	     15.30398998	    -17.89384004	    -10.92369801	     -3.43715861	     -1.34222009
      2.03000000	      8.23390491	      3.84498392	     -3.18464800	      0.47896105	      0.92306149	      0.08477481	     -9.84045239	     -4.86427485	     -1.83074429	    -53.22989407	    -10.88090210	     14.44671042	     12.21081651	      7.51214228	     -8.68842194	    -28.88195721	     15.73368518	    -17.97083546	    -11.12756063	     -3.62940448	     -1.90679207
      2.04000000	      8.29842006	      4.10908301	     -3.08071644	      0.48956013	      0.92459950	      0.08369878	     -7.79809860	     -5.60458167	     -2.32282074	    -55.48631950	     -9.47817514	     13.63930084	     11.08153165	      7.95845207	     -8.64472446	    -28.25121095	     16.12121187	    -17.98320026	    -11.31371725	     -3.73310402	     -2.52161984
      2.05000000	      8.32387671	      4.29832876	     -2.87166334	      0.49998223	      0.92612941	      0.08252824	     -5.76210835	     -6.21654434	     -2.80768028	    -57.41316293	     -7.99451246	     12.56098850	      9.99085676	      8.33977355	     -8.45140287	    -27.60678461	     16.46681273	    -18.00589171	    -11.46497989	     -3.73743052	     -3.17407783
      2.06000000	      8.33933270	      4.39259888	     -2.56308537	      0.51024877	      0.92769297	      0.08130678	     -3.78588431	     -6.67275767	     -3.29238217	    -58.98525879	     -6.43909097	     11.22087621	      8.91753416	      8.61542107	     -8.15872617	    -26.98123647	     16.79582075	    -18.03641929	    -11.61185695	     -3.62662291	     -3.86451842
      2.07000000	      8.33769693	      4.40796759	     -2.17800168	      0.52038068	      0.92928247	      0.08005849	     -1.86086978	     -6.99412436	     -3.76915178	    -60.20889243	     -4.89519409	      9.76758241	      7.85580517	      8.80360272	     -7.75142041	    -26.34414434	     17.09714815	    -18.05153291	    -11.73624658	     -3.42502082	     -4.54659842
      2.08000000	      8.34690581	      4.33818007	     -1.73145919	      0.53040301	      0.93092602	      0.07881926	     -0.03067278	     -7.17651150	     -4.24508550	    -61.07285715	     -3.36652176	      8.30247354	      6.77983104	      8.88419871	     -7.27850012	    -25.70757722	     17.38112850	    -18.04875126	    -11.86652447	     -3.12980390	     -5.21700817
      2.09000000	      8.36022371	      4.20585121	     -1.22727729	      0.54033322	      0.93260459	      0.07757195	      1.70830313	     -7.25870684	     -4.74387402	    -61.58667968	     -1.91209569	      7.01870711	      5.69170046	      8.88311914	     -6.72756515	    -25.05334130	     17.60092890	    -18.01927220	    -11.98877891	     -2.76682693	     -5.86810093
      2.10000000	      8.41832052	      4.00571266	     -0.70870731	      0.55014903	      0.93432824	      0.07640352	      3.32015161	     -7.22826979	     -5.22270598	    -61.76408457	     -0.53832726	      5.88159465	      4.56520606	      8.77932020	     -6.17709395	    -24.41035852	     17.86283718	    -17.96970037	    -12.15685160	     -2.33881130	     -6.48487206
      2.11000000	      8.50394703	      3.76039932	     -0.20619070	      0.55989736	      0.93604252	      0.07534437	      4.82798173	     -7.11958908	     -5.67310564	    -61.62493741	      0.74524077	      4.92502399	      3.41040160	      8.59378234	     -5.67526787	    -23.75720869	     18.16319274	    -17.90152154	    -12.34089914	     -1.87620858	     -7.02608737
      2.12000000	      8.60163660	      3.48996196	      0.33341545	      0.56956059	      0.93772108	      0.07427648	      6.23191035	     -6.97114382	     -6.16356779	    -61.17568490	      1.87977239	      4.28421659	      2.24987914	      8.36370760	     -5.11541340	    -23.09706132	     18.38138150	    -17.80738588	    -12.52816087	     -1.38684622	     -7.57298448
      2.13000000	      8.71064034	      3.19928594	      0.84141563	      0.57917246	      0.93930469	      0.07333425	      7.54803927	     -6.78127263	     -6.62906652	    -60.44279607	      2.92707583	      3.72493107	      1.09004417	      8.07804997	     -4.62579449	    -22.43997506	     18.63222373	    -17.69804487	    -12.71304235	     -0.89816010	     -8.01532314
      2.14000000	      8.82133249	      2.90830394	      1.33877112	      0.58871349	      0.94075253	      0.07246416	      8.78332252	     -6.57204200	     -7.07938281	    -59.44653171	      3.84215515	      3.30336254	     -0.04745238	      7.76662980	     -4.16702409	    -21.80329345	     18.88039839	    -17.56356579	    -12.89140234	     -0.42131502	     -8.44786184
      2.15000000	      8.92497301	      2.62419654	      1.81374800	      0.59822486	      0.94202887	      0.07168438	      9.93965516	     -6.35777996	     -7.52327230	    -58.19465714	      4.63186012	      2.95455784	     -1.15555913	      7.43803983	     -3.75388209	    -21.18827858	     19.13573162	    -17.39682359	    -13.04919634	      0.02832609	     -8.81664123
      2.16000000	      9.02171133	      2.35909396	      2.26961207	      0.60769549	      0.94310498	      0.07099263	     11.01663300	     -6.14681508	     -7.95131025	    -56.70880288	      5.29623897	      2.67107412	     -2.22591181	      7.10629245	     -3.38776349	    -20.61078931	     19.40660585	    -17.18409677	    -13.19251406	      0.43804001	     -9.16468791
      2.17000000	      9.09733135	      2.12089906	      2.70848075	      0.61713245	      0.94393984	      0.07037032	     12.02792738	     -5.94627730	     -8.35773204	    -55.00475859	      5.82485010	      2.49406824	     -3.23748386	      6.78458502	     -3.05949921	    -20.08503065	     19.70379188	    -16.93836775	    -13.30504326	      0.80253700	     -9.51158444
      2.18000000	      9.17391214	      1.91812474	      3.12965054	      0.62656194	      0.94455926	      0.06983449	     12.94155194	     -5.77182311	     -8.76226596	    -53.09148277	      6.22871457	      2.34025193	     -4.22450623	      6.47915772	     -2.77531418	    -19.59700131	     20.01379479	    -16.63017193	    -13.41432446	      1.10453574	     -9.82215403
      2.19000000	      9.23350627	      1.75718053	      3.52875133	      0.63598612	      0.94491903	      0.06936543	     13.77963075	     -5.62912968	     -9.15423225	    -50.98714219	      6.52522786	      2.23541153	     -5.16522843	      6.20494951	     -2.52292361	    -19.15572836	     20.34636201	    -16.28203184	    -13.50155008	      1.34321549	    -10.11553397
      2.20000000	      9.24524986	      1.64239279	      3.93134763	      0.64539018	      0.94495323	      0.06893583	     14.57631514	     -5.52933946	     -9.55773097	    -48.71327155	      6.70745550	      2.22582588	     -6.00889880	      5.96713553	     -2.28281649	    -18.79742181	     20.73921840	    -16.00098202	    -13.53245548	      1.51488749	    -10.44836987
      2.21000000	      9.27781244	      1.57626003	      4.30782149	      0.65480904	      0.94480303	      0.06857879	     15.24716688	     -5.46219965	     -9.95389821	    -46.25953097	      6.71627378	      2.24406882	     -6.87468206	      5.76951815	     -2.05931827	    -18.44177677	     21.10572228	    -15.67885510	    -13.58842735	      1.61772540	    -10.76412748
      2.22000000	      9.34015830	      1.56161044	      4.64346646	      0.66425623	      0.94448089	      0.06831638	     15.78458179	     -5.42120762	    -10.32603801	    -43.63749455	      6.57397912	      2.35761952	     -7.78325704	      5.61636003	     -1.86540145	    -18.07558568	     21.42102646	    -15.29045609	    -13.68070182	      1.64747998	    -11.03704036
      2.23000000	      9.31903149	      1.58869486	      5.01359056	      0.67366967	      0.94378109	      0.06802878	     16.31920403	     -5.43717876	    -10.78149561	    -40.89009639	      6.20232391	      2.52949808	     -8.54617946	      5.49880209	     -1.65124848	    -17.81897440	     21.82687966	    -15.05339966	    -13.67885354	      1.62271089	    -11.38049749
      2.24000000	      9.37558964	      1.65281830	      5.33949183	      0.68314654	      0.94301532	      0.06783086	     16.65388387	     -5.45106271	    -11.22868794	    -37.97711552	      5.67742576	      2.95010483	     -9.42964791	      5.40893523	     -1.45800437	    -17.50832951	     22.16942297	    -14.76697461	    -13.76712422	      1.55167047	    -11.66405332
